<svg xmlns:xlink="http://www.w3.org/1999/xlink" id="icon" xmlns="http://www.w3.org/2000/svg" viewBox="0 0 24 24" width="24"  height="24" >
                <g id="wd-system-arrow-left" fill="#DFE2E6">
                  <path id="Combined-Shape" class="st0" d="M13.43639,5.26303 C13.62826,5.07116 13.63042,4.74945 13.43332,4.55236 L12.73284,3.85188 C12.52732,3.64636 12.21758,3.65342 12.02218,3.84881 L4.244494,11.6265 C4.149056,11.72194 4.100557,11.8495 4.100168,11.97786 C4.096685,12.11136 4.14728,12.23688 4.244494,12.3341 L12.02218,20.111779 C12.21405,20.303651 12.53575,20.305804 12.73284,20.108713 L13.43332,19.408231 C13.63884,19.20271 13.63179,18.892964 13.43639,18.697566 L7.733841,12.99502 L19.36105,12.99502 C19.63367,12.99502 19.86126,12.76906 19.86126,12.49033 L19.86126,11.4997 C19.86126,11.20905 19.63731,10.99502 19.36105,10.99502 L7.704403,10.99502 L13.43639,5.26303 Z" fill="#DFE2E6"></path>
                </g>
              </svg>