<svg xmlns="http://www.w3.org/2000/svg" xmlns:xlink="http://www.w3.org/1999/xlink" preserveAspectRatio="xMidYMin meet" class="icon" aria-hidden="true" aria-label="Go to Twitter" role="img" width="24"  height="24" ><defs><svg id="icon" xmlns="http://www.w3.org/2000/svg" viewBox="0 0 24 24">
<style type="text/css">
    .st0{fill:#333333;}
</style>
    <g id="wd-system-twitter">
        <path id="Combined-Shape" class="st0" d="M8.28251301,20 C15.8295318,20 19.9591837,13.8425197 19.9591837,8.51181102 C19.9591837,8.33858268 19.9591837,8.16535433 19.9511805,7.99212598 C20.7515006,7.42519685 21.4477791,6.70866142 22,5.8976378 C21.2637055,6.22047244 20.4713886,6.43307087 19.6390556,6.53543307 C20.487395,6.03937008 21.1356543,5.24409449 21.4477791,4.2992126 C20.6554622,4.76377953 19.77511,5.09448819 18.8387355,5.27559055 C18.0864346,4.48818898 17.0220088,4 15.8455382,4 C13.5806323,4 11.739896,5.81102362 11.739896,8.03937008 C11.739896,8.35433071 11.779912,8.66141732 11.8439376,8.96062992 C8.43457383,8.79527559 5.40936375,7.18110236 3.38455382,4.74015748 C3.03241297,5.33858268 2.83233293,6.03149606 2.83233293,6.77165354 C2.83233293,8.17322835 3.56062425,9.40944882 4.65706283,10.1338583 C3.98479392,10.1102362 3.35254102,9.92913386 2.80032013,9.62992126 L2.80032013,9.68503937 C2.80032013,11.6377953 4.21688675,13.2755906 6.08963585,13.6456693 C5.7454982,13.7401575 5.38535414,13.7874016 5.00920368,13.7874016 C4.74509804,13.7874016 4.4889956,13.7637795 4.24089636,13.7165354 C4.76110444,15.3228346 6.28171269,16.488189 8.07442977,16.519685 C6.66586635,17.6062992 4.89715886,18.2519685 2.97639056,18.2519685 C2.6482593,18.2519685 2.32012805,18.2362205 2,18.1968504 C3.80872349,19.3307087 5.96958784,20 8.28251301,20"></path>
    </g>
</svg></defs>
          <use xlink:href="#icon" fill="#333333"></use>
        </svg>