<svg xmlns:xlink="http://www.w3.org/1999/xlink" id="icon" xmlns="http://www.w3.org/2000/svg" viewBox="0 0 24 24" width="24"  height="24" >
                <g id="wd-system-arrow-right" fill="#7B858F">
                  <path id="Combined-Shape" class="st0" d="M10.52487,5.26303 C10.333,5.07116 10.33084,4.74945 10.52793,4.55236 L11.22842,3.85188 C11.43394,3.64636 11.74368,3.65342 11.93908,3.84881 L19.71676,11.6265 C19.8122,11.72194 19.8607,11.8495 19.86109,11.97786 C19.86457,12.11136 19.81398,12.23688 19.71676,12.3341 L11.93908,20.111779 C11.74721,20.303651 11.42551,20.305804 11.22842,20.108713 L10.52793,19.408231 C10.32241,19.20271 10.32947,18.892964 10.52487,18.697566 L16.22742,12.99502 L4.60021,12.99502 C4.327586,12.99502 4.1,12.76906 4.1,12.49033 L4.1,11.4997 C4.1,11.20905 4.323951,10.99502 4.60021,10.99502 L16.25685,10.99502 L10.52487,5.26303 Z" fill="#7B858F"></path>
                </g>
              </svg>