<svg xmlns="http://www.w3.org/2000/svg" xmlns:xlink="http://www.w3.org/1999/xlink" role="img" preserveAspectRatio="xMidYMin meet" viewBox="0 0 24 24" class="component-image-svg" width="24"  height="24" ><defs><svg id="icon" xmlns="http://www.w3.org/2000/svg" viewBox="0 0 24 24">
<style type="text/css">
    .st0{fill:#40B4E5;}
</style>
    <g id="wd-system-document">
    <path id="Combined-Shape" class="st0" d="M4 2.494C4 2.221 4.226 2 4.496 2h15.008c.274 0 .496.225.496.494v19.012a.498.498 0 0 1-.496.494H4.496A.497.497 0 0 1 4 21.506V2.494zM18 4H6v16h12V4z M7 8.505C7 8.226 7.228 8 7.491 8h5.018a.49.49 0 0 1 .491.505v.99a.503.503 0 0 1-.491.505H7.491A.49.49 0 0 1 7 9.495v-.99zm0 3c0-.279.228-.505.51-.505h8.98a.5.5 0 0 1 .51.505v.99a.507.507 0 0 1-.51.505H7.51a.5.5 0 0 1-.51-.505v-.99zm0 3c0-.279.228-.505.51-.505h8.98a.5.5 0 0 1 .51.505v.99a.507.507 0 0 1-.51.505H7.51a.5.5 0 0 1-.51-.505v-.99z"></path>
    </g>
</svg></defs>
    <use xlink:href="#icon" fill="#0875E1"></use>
  </svg>